<?xml version="1.0" ?><!-- Uploaded to: SVG Repo, www.svgrepo.com, Generator: SVG Repo Mixer Tools -->
<svg width="800px" height="800px" viewBox="0 0 24 24" data-name="Layer 1" id="Layer_1" xmlns="http://www.w3.org/2000/svg"><title/><circle cx="12" cy="11.75" r="8.75" style="fill:#8799d6"/><rect height="3" style="fill:#738394" width="12" x="6" y="18"/><polygon points="10 9 9 11 8 9 6 8 8 7 9 5 10 7 12 8 10 9" style="fill:#fff"/><path d="M17.41669,10h-.8334A4.62228,4.62228,0,0,0,12,14.6603v2.645A1.68084,1.68084,0,0,0,13.6667,19h.9231l.7435,2h3.3334l.7435-2h.9231A1.68085,1.68085,0,0,0,22,17.3053v-2.645A4.62228,4.62228,0,0,0,17.41669,10Z" style="fill:#d9e3e6"/><path d="M14.5581,16.9217c-.7184.1125-1.2076.1363-1.418-.152a1.85109,1.85109,0,0,1,0-1.4267c.1762-.4419.8659-.6614,1.4992-.7018a1.0864,1.0864,0,0,1,1.2406,1.0771C15.8799,16.4063,15.2346,16.8151,14.5581,16.9217Z" style="fill:#738394"/><path d="M17.45559,18.4307c-.3617,0-.2752-.4197-.4613-.4164-.1956.0036-.136.4164-.487.4164a.369.369,0,0,1-.3617-.4663,4.53018,4.53018,0,0,1,.52-1.0246.36957.36957,0,0,1,.6316,0,4.50977,4.50977,0,0,1,.5204,1.0246A.3694.3694,0,0,1,17.45559,18.4307Z" style="fill:#738394"/><path d="M20.86,16.7697c-.21041.2883-.70051.2645-1.41841.152-.6765-.1066-1.3218-.5154-1.3218-1.2034a1.08636,1.08636,0,0,1,1.2405-1.0771c.6334.0404,1.3235.2599,1.49971.7018A1.853,1.853,0,0,1,20.86,16.7697Z" style="fill:#738394"/></svg>