<svg width="266" height="74" viewBox="0 0 266 74" fill="none" xmlns="http://www.w3.org/2000/svg">
<path d="M51.0284 44.3072L37.0533 54.7229L49.0398 63.553C50.9373 64.8413 54.961 65.4502 58.2626 61.7458C61.5642 58.0415 60.0047 53.0368 58.2626 51.3776C56.1488 49.3644 55.2856 48.7338 51.0291 44.3047" stroke="#FFCC00" stroke-width="4.82612"/>
<path d="M22.9716 44.2916L36.9467 54.7072L24.9602 63.5374C23.0627 64.8257 19.039 65.4346 15.7374 61.7302C12.4358 58.0259 13.9953 53.0212 15.7374 51.362C17.8512 49.3488 18.7144 48.7182 22.9709 44.2891" stroke="#FF7700" stroke-width="4.82612"/>
<path d="M62.1136 36.0449L51.065 44.3468C48.9512 42.3336 50.8564 44.2341 46.5999 39.8049C42.3435 35.3758 44.9026 30.2207 46.5999 28.9045C48.2972 27.5883 51.8446 24.6565 52.8548 24.0129C54.4397 23.0032 59.5468 20.9517 63.2585 25.7017C66.5073 29.8593 64.6755 34.1172 62.1136 36.0449Z" stroke="#01C6DC" stroke-width="4.82612"/>
<path d="M11.8864 36.0292L22.935 44.3312C25.0488 42.318 23.1436 44.2184 27.4001 39.7893C31.6565 35.3602 29.0974 30.205 27.4001 28.8888C25.7028 27.5727 22.1554 24.6409 21.1452 23.9973C19.5603 22.9876 14.4532 20.9361 10.7415 25.6861C7.49271 29.8437 9.32446 34.1016 11.8864 36.0292Z" stroke="#00C488" stroke-width="4.82612"/>
<ellipse cx="36.9435" cy="17.1156" rx="8.11533" ry="8.11562" stroke="#FF003D" stroke-width="4.82612"/>
<path d="M110.044 27.8187L102.825 28.6062C102.621 27.8771 102.264 27.1917 101.753 26.55C101.257 25.9083 100.586 25.3906 99.7406 24.9969C98.8948 24.6031 97.8594 24.4062 96.6344 24.4062C94.9865 24.4062 93.601 24.7635 92.4781 25.4781C91.3698 26.1927 90.8229 27.1188 90.8375 28.2563C90.8229 29.2333 91.1802 30.0281 91.9094 30.6406C92.6531 31.2531 93.8781 31.7562 95.5844 32.15L101.316 33.375C104.495 34.0604 106.857 35.1469 108.403 36.6344C109.964 38.1219 110.751 40.0688 110.766 42.475C110.751 44.5896 110.131 46.4562 108.906 48.075C107.696 49.6792 106.011 50.9333 103.853 51.8375C101.695 52.7417 99.2156 53.1938 96.4156 53.1938C92.3031 53.1938 88.9927 52.3333 86.4844 50.6125C83.976 48.8771 82.4813 46.4635 82 43.3719L89.7219 42.6281C90.0719 44.1448 90.8156 45.2896 91.9531 46.0625C93.0906 46.8354 94.5708 47.2219 96.3938 47.2219C98.275 47.2219 99.7844 46.8354 100.922 46.0625C102.074 45.2896 102.65 44.3344 102.65 43.1969C102.65 42.2344 102.278 41.4396 101.534 40.8125C100.805 40.1854 99.6677 39.7042 98.1219 39.3687L92.3906 38.1656C89.1677 37.4948 86.7833 36.3646 85.2375 34.775C83.6917 33.1708 82.926 31.1438 82.9406 28.6938C82.926 26.6229 83.4875 24.8292 84.625 23.3125C85.7771 21.7812 87.374 20.6 89.4156 19.7687C91.4719 18.9229 93.8417 18.5 96.525 18.5C100.463 18.5 103.561 19.3385 105.822 21.0156C108.097 22.6927 109.504 24.9604 110.044 27.8187Z" fill="white"/>
<path d="M117.295 65.1375V18.9375H125.083V24.4937H125.542C125.951 23.6771 126.527 22.8094 127.27 21.8906C128.014 20.9573 129.02 20.1625 130.289 19.5062C131.558 18.8354 133.177 18.5 135.145 18.5C137.741 18.5 140.082 19.1635 142.167 20.4906C144.267 21.8031 145.93 23.75 147.155 26.3313C148.394 28.8979 149.014 32.0479 149.014 35.7812C149.014 39.4708 148.409 42.6062 147.198 45.1875C145.988 47.7687 144.34 49.7375 142.255 51.0938C140.169 52.45 137.807 53.1281 135.167 53.1281C133.242 53.1281 131.645 52.8073 130.377 52.1656C129.108 51.524 128.087 50.751 127.314 49.8469C126.556 48.9281 125.965 48.0604 125.542 47.2438H125.214V65.1375H117.295ZM125.061 35.7375C125.061 37.9104 125.367 39.8135 125.98 41.4469C126.607 43.0802 127.504 44.3563 128.67 45.275C129.852 46.1792 131.281 46.6312 132.958 46.6312C134.708 46.6312 136.173 46.1646 137.355 45.2313C138.536 44.2833 139.426 42.9927 140.023 41.3594C140.636 39.7115 140.942 37.8375 140.942 35.7375C140.942 33.6521 140.643 31.8 140.045 30.1812C139.447 28.5625 138.558 27.2938 137.377 26.375C136.195 25.4562 134.722 24.9969 132.958 24.9969C131.266 24.9969 129.83 25.4417 128.648 26.3313C127.467 27.2208 126.57 28.4677 125.958 30.0719C125.36 31.676 125.061 33.5646 125.061 35.7375Z" fill="white"/>
<path d="M159.574 65.1375C158.495 65.1375 157.496 65.05 156.577 64.875C155.673 64.7146 154.951 64.525 154.412 64.3062L156.249 58.1375C157.401 58.4729 158.429 58.6333 159.334 58.6188C160.238 58.6042 161.033 58.3198 161.718 57.7656C162.418 57.226 163.009 56.3219 163.49 55.0531L164.168 53.2375L151.984 18.9375H160.384L168.127 44.3125H168.477L176.243 18.9375H184.665L171.212 56.6063C170.585 58.3854 169.753 59.9094 168.718 61.1781C167.683 62.4615 166.414 63.4385 164.912 64.1094C163.424 64.7948 161.645 65.1375 159.574 65.1375Z" fill="white"/>
<path d="M198.063 32.85V52.5375H190.145V18.9375H197.713V24.6469H198.107C198.88 22.7656 200.112 21.2708 201.804 20.1625C203.51 19.0542 205.617 18.5 208.126 18.5C210.445 18.5 212.464 18.9958 214.185 19.9875C215.921 20.9792 217.262 22.4156 218.21 24.2969C219.173 26.1781 219.647 28.4604 219.632 31.1438V52.5375H211.713V32.3687C211.713 30.1229 211.13 28.3656 209.963 27.0969C208.811 25.8281 207.214 25.1937 205.173 25.1937C203.787 25.1937 202.555 25.5 201.476 26.1125C200.411 26.7104 199.573 27.5781 198.96 28.7156C198.362 29.8531 198.063 31.2312 198.063 32.85Z" fill="white"/>
<path d="M242.557 53.1938C239.188 53.1938 236.279 52.4937 233.829 51.0938C231.393 49.6792 229.52 47.6813 228.207 45.1C226.895 42.5042 226.238 39.449 226.238 35.9344C226.238 32.4781 226.895 29.4448 228.207 26.8344C229.534 24.2094 231.386 22.1677 233.763 20.7094C236.14 19.2365 238.933 18.5 242.141 18.5C244.212 18.5 246.166 18.8354 248.004 19.5062C249.856 20.1625 251.489 21.1833 252.904 22.5687C254.333 23.9542 255.456 25.7187 256.273 27.8625C257.089 29.9917 257.498 32.5292 257.498 35.475V37.9031H229.957V32.5656H249.907C249.892 31.049 249.564 29.7 248.923 28.5187C248.281 27.3229 247.384 26.3823 246.232 25.6969C245.095 25.0115 243.767 24.6687 242.251 24.6687C240.632 24.6687 239.21 25.0625 237.985 25.85C236.76 26.6229 235.805 27.6438 235.12 28.9125C234.449 30.1667 234.106 31.5448 234.091 33.0469V37.7062C234.091 39.6604 234.449 41.3375 235.163 42.7375C235.878 44.1229 236.877 45.1875 238.16 45.9313C239.443 46.6604 240.946 47.025 242.666 47.025C243.819 47.025 244.861 46.8646 245.795 46.5438C246.728 46.2083 247.537 45.7198 248.223 45.0781C248.908 44.4365 249.426 43.6417 249.776 42.6938L257.17 43.525C256.703 45.4792 255.813 47.1854 254.501 48.6438C253.203 50.0875 251.54 51.2104 249.513 52.0125C247.486 52.8 245.167 53.1938 242.557 53.1938Z" fill="white"/>
</svg>
